{"title":"Kung Fu Panda 2 3D 1080p Half SBS","uid":7827537,"size":1985328745,"categoryP":"video","categoryS":"3d","magnet":"?xt=urn:btih:9ae01582ad56678925c9694bbf239a4b19acda9c&amp;dn=Kung+Fu+Panda+2+3D+1080p+Half+SBS&amp;tr=udp%3A%2F%2Ftracker.openbittorrent.com%3A80&amp;tr=udp%3A%2F%2Fopen.demonii.com%3A1337&amp;tr=udp%3A%2F%2Ftracker.coppersurfer.tk%3A6969&amp;tr=udp%3A%2F%2Fexodus.desync.com%3A6969","seeders":1,"leechers":0,"uploader":"nexuswolf","files":3,"time":1352971436,"description":"___________________________________________________________________________________\n\nPlot: Po and his friends fight to stop the peacock,Shen from conquering China with\n \na deadly new weapon, but first the Dragon Warrior must come to terms with his \n\npast. .\n___________________________________________________________________________________\n\nIMDb:\n\nRating : 7.3\n\nLink   : http://www.imdb.com/title/tt1302011/\n___________________________________________________________________________________\n\nAny Queries Shud B Put Forth In The Comment Section. I will Try To Answer It As \n\nSoon As Possible\n___________________________________________________________________________________\n\nNote:\n\nThis Is Real Half Side-By-Side 3D.\n\nLanguage : English\n\n3D Type  : Stereoscopic 3D\n\nTo watch It In Anaglyph [Red-Blue], Download Stereoscopic Player\n___________________________________________________________________________________\n\nFormat                                   : Matroska\nFormat version                           : Version 2\nFile size                                : 1.85 GiB\nDuration                                 : 1h 30mn\nOverall bit rate                         : 2 928 Kbps\nEncoded date                             : UTC 2012-05-22 11:06:00\nWriting application                      : Lavf53.31.100\nWriting library                          : Lavf53.31.100\n\nVideo\nID                                       : 1\nFormat                                   : AVC\nFormat/Info                              : Advanced Video Codec\nFormat profile                           : &lt;a class=&quot;__cf_email__&quot; href=&quot;/cdn-cgi/l/email-protection&quot; data-cfemail=&quot;82caebe5eac2ceb6acb3&quot;&gt;[email&amp;#160;protected]&lt;/a&gt;&lt;script cf-hash='f9e31' type=&quot;text/javascript&quot;&gt;\n/* &lt;![CDATA[ */!function(){try{var t=&quot;currentScript&quot;in document?document.currentScript:function(){for(var t=document.getElementsByTagName(&quot;script&quot;),e=t.length;e--;)if(t[e].getAttribute(&quot;cf-hash&quot;))return t[e]}();if(t&amp;&amp;t.previousSibling){var e,r,n,i,c=t.previousSibling,a=c.getAttribute(&quot;data-cfemail&quot;);if(a){for(e=&quot;&quot;,r=parseInt(a.substr(0,2),16),n=2;a.length-n;n+=2)i=parseInt(a.substr(n,2),16)^r,e+=String.fromCharCode(i);e=document.createTextNode(e),c.parentNode.replaceChild(e,c)}}}catch(u){}}();/* ]]&gt; */&lt;/script&gt;\nFormat settings, CABAC                   : Yes\nFormat settings, ReFrames                : 2 frames\nCodec ID                                 : V_MPEG4/ISO/AVC\nDuration                                 : 1h 30mn\nBit rate                                 : 2 500 Kbps\nWidth                                    : 1 920 pixels\nHeight                                   : 1 080 pixels\nDisplay aspect ratio                     : 16:9\nFrame rate mode                          : Variable\nFrame rate                               : 23.976 fps\nColor space                              : YUV\nChroma subsampling                       : 4:2:0\nBit depth                                : 8 bits\nScan type                                : Progressive\nBits/(Pixel*Frame)                       : 0.050\nStream size                              : 1.53 GiB (83%)\nWriting library                          : x264 core 120 r2146\nLanguage                                 : English\n\nAudio\nID                                       : 2\nFormat                                   : AC-3\nFormat/Info                              : Audio Coding 3\nMode extension                           : CM (complete main)\nCodec ID                                 : A_AC3\nDuration                                 : 1h 30mn\nBit rate mode                            : Constant\nBit rate                                 : 448 Kbps\nChannel(s)                               : 6 channels\nChannel positions                        : Front: L C R, Side: L R, LFE\nSampling rate                            : 48.0 KHz\nBit depth                                : 16 bits\nCompression mode                         : Lossy\nStream size                              : 290 MiB (15%)\nLanguage                                 : English\n___________________________________________________________________________________\n\nSubtitles: English\n\nType     : External\n\nExtention: SRT File\n___________________________________________________________________________________\n\n- Nexus Wolf\n___________________________________________________________________________________\t\t\t\t","torrent":{"xt":"urn:btih:9ae01582ad56678925c9694bbf239a4b19acda9c","amp;dn":"Kung+Fu+Panda+2+3D+1080p+Half+SBS","amp;tr":["udp%3A%2F%2Ftracker.openbittorrent.com%3A80","udp%3A%2F%2Fopen.demonii.com%3A1337","udp%3A%2F%2Ftracker.coppersurfer.tk%3A6969","udp%3A%2F%2Fexodus.desync.com%3A6969"],"infoHash":"9ae01582ad56678925c9694bbf239a4b19acda9c","infoHashBuffer":{"type":"Buffer","data":[154,224,21,130,173,86,103,137,37,201,105,75,191,35,154,75,25,172,218,156]},"announce":[],"urlList":[]}}